name rise30.8019peak61.5557fall86.2505.mot
datacolumns 19
datarows 12
range 11.34162700000000 11.35995600000000
endheader
time	ground_force1_vx	ground_force1_vy	ground_force1_vz	ground_force1_px	ground_force1_py	ground_force1_pz	ground_force2_vx	ground_force2_vy	ground_force2_vz	ground_force2_px	ground_force2_py	ground_force2_pz	ground_torque1_x	ground_torque1_y	ground_torque1_z	ground_torque2_x	ground_torque2_y	ground_torque2_z	
11.34162700000000	54.21956600000000	761.60465899999997	43.76691700000000	0.24080300000000	0.00000000000000	0.09182000000000	0.00000000000000	0.00000000000000	0.00000000000000	0.00000000000000	0.00000000000000	0.00000000000000	0.00000000000000	11.78026200000000	0.00000000000000	0.00000000000000	0.00000000000000	0.00000000000000	
11.34329200000000	53.55153900000000	761.57373800000005	43.74848200000000	0.23973300000000	0.00000000000000	0.09183400000000	0.00000000000000	0.00000000000000	0.00000000000000	0.00000000000000	0.00000000000000	0.00000000000000	0.00000000000000	11.78104200000000	0.00000000000000	0.00000000000000	0.00000000000000	0.00000000000000	
11.34495700000000	52.88307000000000	761.44028700000001	43.72878000000000	0.23865400000000	0.00000000000000	0.09184900000000	0.00000000000000	0.00000000000000	0.00000000000000	0.00000000000000	0.00000000000000	0.00000000000000	0.00000000000000	11.78127000000000	0.00000000000000	0.00000000000000	0.00000000000000	0.00000000000000	
11.34663000000000	52.21395400000000	761.20625299999995	43.70757100000000	0.23756500000000	0.00000000000000	0.09186500000000	0.00000000000000	0.00000000000000	0.00000000000000	0.00000000000000	0.00000000000000	0.00000000000000	0.00000000000000	11.78085000000000	0.00000000000000	0.00000000000000	0.00000000000000	0.00000000000000	
11.34828900000000	51.54398000000000	760.87371599999994	43.68458600000000	0.23646600000000	0.00000000000000	0.09188300000000	0.00000000000000	0.00000000000000	0.00000000000000	0.00000000000000	0.00000000000000	0.00000000000000	0.00000000000000	11.77968400000000	0.00000000000000	0.00000000000000	0.00000000000000	0.00000000000000	
11.34996400000000	50.87294200000000	760.44488500000000	43.65954100000000	0.23535600000000	0.00000000000000	0.09190200000000	0.00000000000000	0.00000000000000	0.00000000000000	0.00000000000000	0.00000000000000	0.00000000000000	0.00000000000000	11.77766400000000	0.00000000000000	0.00000000000000	0.00000000000000	0.00000000000000	
11.35162800000000	50.20063700000000	759.92210200000000	43.63213100000000	0.23423300000000	0.00000000000000	0.09192100000000	0.00000000000000	0.00000000000000	0.00000000000000	0.00000000000000	0.00000000000000	0.00000000000000	0.00000000000000	11.77468300000000	0.00000000000000	0.00000000000000	0.00000000000000	0.00000000000000	
11.35329700000000	49.52687000000000	759.30783099999996	43.60203700000000	0.23309700000000	0.00000000000000	0.09194200000000	0.00000000000000	0.00000000000000	0.00000000000000	0.00000000000000	0.00000000000000	0.00000000000000	0.00000000000000	11.77062900000000	0.00000000000000	0.00000000000000	0.00000000000000	0.00000000000000	
11.35496100000000	48.85146000000000	758.60465799999997	43.56893400000000	0.23194700000000	0.00000000000000	0.09196400000000	0.00000000000000	0.00000000000000	0.00000000000000	0.00000000000000	0.00000000000000	0.00000000000000	0.00000000000000	11.76539000000000	0.00000000000000	0.00000000000000	0.00000000000000	0.00000000000000	
11.35662700000000	48.17424200000000	757.81529000000000	43.53248700000000	0.23078200000000	0.00000000000000	0.09198600000000	0.00000000000000	0.00000000000000	0.00000000000000	0.00000000000000	0.00000000000000	0.00000000000000	0.00000000000000	11.75885700000000	0.00000000000000	0.00000000000000	0.00000000000000	0.00000000000000	
11.35829100000000	47.49507100000000	756.94254200000000	43.49236000000000	0.22960300000000	0.00000000000000	0.09201000000000	0.00000000000000	0.00000000000000	0.00000000000000	0.00000000000000	0.00000000000000	0.00000000000000	0.00000000000000	11.75092100000000	0.00000000000000	0.00000000000000	0.00000000000000	0.00000000000000	
11.35995600000000	46.81382200000000	755.98934199999997	43.44821800000000	0.22840900000000	0.00000000000000	0.09203500000000	0.00000000000000	0.00000000000000	0.00000000000000	0.00000000000000	0.00000000000000	0.00000000000000	0.00000000000000	11.74147800000000	0.00000000000000	0.00000000000000	0.00000000000000	0.00000000000000	
